<svg width="17" height="18" viewBox="0 0 17 18" fill="none" xmlns="http://www.w3.org/2000/svg">
<path d="M11.9511 13.1815C12.3185 13.1815 12.6708 13.3274 12.9306 13.5872C13.1904 13.8469 13.3363 14.1993 13.3363 14.5666C13.3363 14.934 13.1904 15.2863 12.9306 15.5461C12.6708 15.8059 12.3185 15.9518 11.9511 15.9518C11.5837 15.9518 11.2314 15.8059 10.9716 15.5461C10.7119 15.2863 10.5659 14.934 10.5659 14.5666C10.5659 13.7979 11.1823 13.1815 11.9511 13.1815ZM0.869629 2.09998H3.13441L3.78544 3.48516H14.0289C14.2126 3.48516 14.3887 3.55813 14.5186 3.68802C14.6485 3.8179 14.7215 3.99407 14.7215 4.17775C14.7215 4.29549 14.6869 4.41323 14.6384 4.52405L12.1589 9.00512C11.9234 9.42761 11.4663 9.71849 10.9469 9.71849H5.78704L5.1637 10.8474L5.14293 10.9305C5.14293 10.9765 5.16117 11.0205 5.19364 11.053C5.22611 11.0854 5.27015 11.1037 5.31607 11.1037H13.3363V12.4889H5.02518C4.65781 12.4889 4.30548 12.3429 4.04571 12.0832C3.78594 11.8234 3.64 11.4711 3.64 11.1037C3.64 10.8613 3.70233 10.6327 3.80622 10.4388L4.74815 8.74194L2.25481 3.48516H0.869629V2.09998ZM5.02518 13.1815C5.39256 13.1815 5.74489 13.3274 6.00466 13.5872C6.26443 13.8469 6.41037 14.1993 6.41037 14.5666C6.41037 14.934 6.26443 15.2863 6.00466 15.5461C5.74489 15.8059 5.39256 15.9518 5.02518 15.9518C4.65781 15.9518 4.30548 15.8059 4.04571 15.5461C3.78594 15.2863 3.64 14.934 3.64 14.5666C3.64 13.7979 4.25641 13.1815 5.02518 13.1815ZM11.2585 8.33331L13.1839 4.87035H4.42955L6.06407 8.33331H11.2585Z" fill="white"/>
</svg>
